<?xml version="1.0" encoding="UTF-8"?>
<svg id="Layer_1" data-name="Layer 1" xmlns="http://www.w3.org/2000/svg" viewBox="0 0 1920 1080">
  <defs>
    <style>
      .cls-1 {
        fill: #2b3f47;
        stroke-width: 0px;
      }
    </style>
  </defs>
  <path class="cls-1" d="M1082.74,875.19l-315.76-309.4c-3.75-3.68-6.4-7.67-7.95-11.97-1.57-4.3-2.36-8.9-2.36-13.81s.79-9.51,2.36-13.81c1.55-4.3,4.2-8.29,7.95-11.97l315.76-310.32c8.75-8.59,19.68-12.89,32.8-12.89s24.36,4.6,33.73,13.81c9.37,9.21,14.06,19.95,14.06,32.23s-4.69,23.02-14.06,32.23l-275.47,270.73,275.47,270.73c8.75,8.59,13.12,19.18,13.12,31.75s-4.68,23.5-14.05,32.71c-9.37,9.21-20.3,13.81-32.8,13.81s-23.42-4.6-32.8-13.81Z"/>
</svg>