<?xml version="1.0" encoding="UTF-8"?>
<svg id="Layer_5" data-name="Layer 5" xmlns="http://www.w3.org/2000/svg" viewBox="0 0 1920 1080">
  <defs>
    <style>
      .cls-1 {
        fill: #2b3f47;
        stroke-width: 0px;
      }
    </style>
  </defs>
  <path class="cls-1" d="M1078.07,724.83l-192.64-191.6c-2.29-2.28-3.9-4.75-4.85-7.41-.96-2.66-1.44-5.51-1.44-8.55s.48-5.89,1.44-8.55c.94-2.66,2.56-5.13,4.85-7.41l192.64-192.17c5.34-5.32,12-7.98,20.01-7.98s14.86,2.85,20.58,8.55c5.72,5.7,8.57,12.36,8.57,19.96s-2.86,14.26-8.57,19.96l-168.06,167.65,168.06,167.65c5.34,5.32,8,11.88,8,19.66s-2.86,14.55-8.57,20.26c-5.72,5.7-12.39,8.55-20.01,8.55s-14.29-2.85-20.01-8.55Z"/>
  <path class="cls-1" d="M729.65,724.83l196.32-191.6c2.33-2.28,3.98-4.75,4.94-7.41.98-2.66,1.47-5.51,1.47-8.55s-.49-5.89-1.47-8.55c-.96-2.66-2.61-5.13-4.94-7.41l-196.32-192.17c-5.44-5.32-12.23-7.98-20.39-7.98s-15.15,2.85-20.97,8.55c-5.83,5.7-8.74,12.36-8.74,19.96s2.91,14.26,8.74,19.96l171.27,167.65-171.27,167.65c-5.44,5.32-8.16,11.88-8.16,19.66s2.91,14.55,8.74,20.26c5.83,5.7,12.62,8.55,20.39,8.55s14.56-2.85,20.39-8.55Z"/>
</svg>