<?xml version="1.0" encoding="UTF-8"?>
<svg id="Layer_8" data-name="Layer 8" xmlns="http://www.w3.org/2000/svg" viewBox="0 0 1920 1080">
  <defs>
    <style>
      .cls-1 {
        fill: #2b3f47;
        stroke-width: 0px;
      }
    </style>
  </defs>
  <path class="cls-1" d="M1060.71,398.69c-34.97,0-68.53,16.28-90.43,42-21.9-25.72-55.47-42-90.43-42-61.9,0-110.53,48.63-110.53,110.53,0,75.96,68.33,137.86,171.82,231.91l29.14,26.33,29.14-26.53c103.49-93.85,171.82-155.74,171.82-231.71,0-61.9-48.63-110.53-110.53-110.53ZM972.29,711.19l-2.01,2.01-2.01-2.01c-95.66-86.61-158.76-143.89-158.76-201.97,0-40.19,30.14-70.34,70.34-70.34,30.95,0,61.09,19.9,71.74,47.43h37.58c10.45-27.53,40.59-47.43,71.54-47.43,40.19,0,70.34,30.14,70.34,70.34,0,58.08-63.1,115.35-158.76,201.97Z"/>
</svg>