<?xml version="1.0" encoding="UTF-8"?>
<svg id="Layer_2" data-name="Layer 2" xmlns="http://www.w3.org/2000/svg" viewBox="0 0 32.56 29.87">
  <defs>
    <style>
      .cls-1 {
        fill: #2b3f47;
        stroke-width: 0px;
      }
    </style>
  </defs>
  <g id="ListIcon">
    <path id="Favorite" class="cls-1" d="M23.61,0c-2.83,0-5.55,1.32-7.33,3.4-1.77-2.08-4.49-3.4-7.33-3.4C3.94,0,0,3.94,0,8.95c0,6.15,5.54,11.17,13.92,18.79l2.36,2.13,2.36-2.15c8.38-7.6,13.92-12.62,13.92-18.77,0-5.01-3.94-8.95-8.95-8.95ZM16.44,25.32l-.16.16-.16-.16C8.37,18.3,3.26,13.66,3.26,8.95c0-3.26,2.44-5.7,5.7-5.7,2.51,0,4.95,1.61,5.81,3.84h3.04c.85-2.23,3.29-3.84,5.8-3.84,3.26,0,5.7,2.44,5.7,5.7,0,4.71-5.11,9.34-12.86,16.36Z"/>
  </g>
</svg>