<?xml version="1.0" encoding="UTF-8"?>
<svg id="Layer_9" data-name="Layer 9" xmlns="http://www.w3.org/2000/svg" viewBox="0 0 1920 1080">
  <defs>
    <style>
      .cls-1 {
        fill: #2b3f47;
        stroke-width: 0px;
      }
    </style>
  </defs>
  <path class="cls-1" d="M1052.61,335.45c-35.81,0-70.18,16.67-92.62,43.01-22.43-26.34-56.8-43.01-92.61-43.01-63.39,0-113.2,49.81-113.2,113.2,0,77.8,69.98,141.19,175.97,237.51l29.84,26.96,29.84-27.17c105.99-96.11,175.97-159.5,175.97-237.3,0-63.39-49.81-113.2-113.2-113.2ZM962.06,655.49l-2.06,2.06-2.06-2.06c-97.97-88.7-162.59-147.36-162.59-206.84,0-41.16,30.87-72.03,72.03-72.03,31.69,0,62.57,20.38,73.47,48.57h38.49c10.7-28.2,41.57-48.57,73.27-48.57,41.16,0,72.03,30.87,72.03,72.03,0,59.48-64.63,118.14-162.59,206.84Z"/>
  <path class="cls-1" d="M962.06,655.49l-2.06,2.06-2.06-2.06c-97.97-88.7-162.59-147.36-162.59-206.84,0-41.16,30.87-72.03,72.03-72.03,31.69,0,62.57,20.38,73.47,48.57h38.49c10.7-28.2,41.57-48.57,73.27-48.57,41.16,0,72.03,30.87,72.03,72.03,0,59.48-64.63,118.14-162.59,206.84Z"/>
</svg>