<?xml version="1.0" encoding="UTF-8"?>
<svg id="Layer_7" data-name="Layer 7" xmlns="http://www.w3.org/2000/svg" viewBox="0 0 1920 1080">
  <defs>
    <style>
      .cls-1 {
        fill: #2b3f47;
        stroke-width: 0px;
      }
    </style>
  </defs>
  <path class="cls-1" d="M1019.3,319.42c-140.24,0-254.06,113.82-254.06,254.06s113.82,254.06,254.06,254.06,254.06-113.82,254.06-254.06-113.82-254.06-254.06-254.06ZM1044.71,751.33h-50.81v-50.81h50.81v50.81ZM1097.3,554.43l-22.87,23.37c-18.29,18.55-29.73,33.79-29.73,71.9h-50.81v-12.7c0-27.95,11.43-53.35,29.73-71.9l31.5-32.01c9.4-9.15,14.99-21.85,14.99-35.82,0-27.95-22.87-50.81-50.81-50.81s-50.81,22.87-50.81,50.81h-50.81c0-56.15,45.48-101.62,101.62-101.62s101.62,45.48,101.62,101.62c0,22.36-9.15,42.68-23.63,57.16Z"/>
</svg>