<svg width="20" height="23" viewBox="0 0 20 23" fill="none" xmlns="http://www.w3.org/2000/svg">
<path d="M16.2573 16.6134L11.8278 21.1536C11.6341 21.3524 11.404 21.51 11.1508 21.6176C10.8976 21.7252 10.6262 21.7806 10.3521 21.7806C10.0781 21.7806 9.80666 21.7252 9.55346 21.6176C9.30026 21.51 9.07023 21.3524 8.87652 21.1536L4.44599 16.6134C3.27803 15.4162 2.48266 13.8908 2.16045 12.2303C1.83823 10.5698 2.00365 8.84857 2.63577 7.28438C3.2679 5.7202 4.33835 4.38327 5.71176 3.44266C7.08517 2.50205 8.69985 2 10.3516 2C12.0034 2 13.6181 2.50205 14.9915 3.44266C16.3649 4.38327 17.4353 5.7202 18.0675 7.28438C18.6996 8.84857 18.865 10.5698 18.5428 12.2303C18.2206 13.8908 17.4252 15.4162 16.2573 16.6134Z" stroke="#EFFFF8" stroke-width="2.08791" stroke-linecap="round" stroke-linejoin="round"/>
<path d="M13.4825 10.5593C13.4825 11.4107 13.1526 12.2272 12.5652 12.8293C11.9779 13.4313 11.1813 13.7695 10.3507 13.7695C9.52005 13.7695 8.72345 13.4313 8.13611 12.8293C7.54877 12.2272 7.21881 11.4107 7.21881 10.5593C7.21881 9.70795 7.54877 8.89144 8.13611 8.28941C8.72345 7.68739 9.52005 7.34918 10.3507 7.34918C11.1813 7.34918 11.9779 7.68739 12.5652 8.28941C13.1526 8.89144 13.4825 9.70795 13.4825 10.5593Z" stroke="#EFFFF8" stroke-width="2.08791" stroke-linecap="round" stroke-linejoin="round"/>
</svg>
