<?xml version="1.0" encoding="UTF-8"?>
<svg id="Layer_2" data-name="Layer 2" xmlns="http://www.w3.org/2000/svg" viewBox="0 0 32.56 32.56">
  <defs>
    <style>
      .cls-1 {
        fill: #2b3f47;
        stroke-width: 0px;
      }
    </style>
  </defs>
  <g id="ListIcon">
    <path id="SearchIcon" class="cls-1" d="M23.27,20.48h-1.47l-.52-.5c1.82-2.12,2.92-4.88,2.92-7.87C24.2,5.42,18.78,0,12.1,0S0,5.42,0,12.1s5.42,12.1,12.1,12.1c3,0,5.75-1.1,7.87-2.92l.5.52v1.47l9.31,9.29,2.77-2.77-9.29-9.31ZM12.1,20.48c-4.64,0-8.38-3.74-8.38-8.38S7.47,3.72,12.1,3.72s8.38,3.74,8.38,8.38-3.74,8.38-8.38,8.38Z"/>
  </g>
</svg>