<?xml version="1.0" encoding="UTF-8"?>
<svg id="Layer_2" data-name="Layer 2" xmlns="http://www.w3.org/2000/svg" viewBox="0 0 1920 1080">
  <defs>
    <style>
      .cls-1 {
        fill: #2b3f47;
        stroke-width: 0px;
      }
    </style>
  </defs>
  <path class="cls-1" d="M1139.58,578.34h-25.65l-9.09-8.77c31.81-37.01,50.97-85.05,50.97-137.32,0-116.54-94.47-211.01-211.01-211.01s-211.01,94.47-211.01,211.01,94.47,211.01,211.01,211.01c52.27,0,100.31-19.15,137.32-50.97l8.76,9.09v25.65l162.32,161.99,48.37-48.37-161.99-162.32ZM944.8,578.34c-80.83,0-146.09-65.25-146.09-146.08s65.25-146.09,146.09-146.09,146.08,65.25,146.08,146.09-65.25,146.08-146.08,146.08Z"/>
</svg>