<svg width="344" height="339" viewBox="0 0 344 339" fill="none" xmlns="http://www.w3.org/2000/svg">
<path d="M249.408 209.289C271.848 168.105 326.794 165.905 328.427 215.198C329.404 244.612 304.073 236.477 285.598 259.269C277.02 269.856 283.819 296.213 262.245 293.12C240.672 290.027 217.172 268.442 249.408 209.289Z" fill="#46757C"/>
<path d="M77.3526 94.0177C46.3764 90.5443 30.0568 201.274 65.1051 192.834C90.1709 186.795 117.085 98.4783 77.3526 94.0177Z" fill="#46757C"/>
<path d="M185.89 17.1137C149.572 9.96408 93.6436 83.0123 125.707 158.992C135.057 181.152 86.4444 154.715 77.0225 197.442C67.5961 240.175 77.3077 296.312 118.408 309.284C171.038 325.896 224.214 259.679 244.868 189.949C266.594 116.625 233.87 26.559 185.89 17.1137Z" fill="#46757C"/>
<path d="M185.679 200.373C185.679 200.373 157.126 179.476 141.978 161.189C126.826 142.902 160.626 101.509 184.516 133.861" fill="#F77070"/>
<path d="M185.679 200.373C185.679 200.373 157.126 179.476 141.978 161.189C126.826 142.902 160.626 101.509 184.516 133.861" stroke="#F77070" stroke-width="5.93158" stroke-linejoin="bevel"/>
<path d="M182.46 200.373C182.46 200.373 211.013 179.476 226.161 161.189C241.309 142.902 207.513 101.509 183.623 133.861" fill="#F77070"/>
<path d="M182.46 200.373C182.46 200.373 211.013 179.476 226.161 161.189C241.309 142.902 207.513 101.509 183.623 133.861" stroke="#F77070" stroke-width="5.93158" stroke-linejoin="bevel"/>
<path d="M185.952 135.673C185.952 135.673 184.439 137.032 184.159 137.032C183.878 137.032 182.179 135.662 182.179 135.662" fill="#F77070"/>
<path d="M185.952 135.673C185.952 135.673 184.439 137.032 184.159 137.032C183.878 137.032 182.179 135.662 182.179 135.662" stroke="#F77070" stroke-width="0.364572" stroke-miterlimit="10"/>
<path d="M185.934 135.673C185.934 135.673 184.436 134.083 184.159 134.083C183.882 134.083 182.197 135.687 182.197 135.687" fill="#F77070"/>
<path d="M185.934 135.673C185.934 135.673 184.436 134.083 184.159 134.083C183.882 134.083 182.197 135.687 182.197 135.687" stroke="#F77070" stroke-width="0.364572" stroke-miterlimit="10"/>
<path d="M134.11 120.645L120.596 107.805" stroke="#F77070" stroke-width="5.83314" stroke-miterlimit="10" stroke-linecap="round"/>
<path d="M235.268 120.645L248.783 107.805" stroke="#F77070" stroke-width="5.83314" stroke-miterlimit="10" stroke-linecap="round"/>
<path d="M236.978 188.94L250.492 201.777" stroke="#F77070" stroke-width="5.83314" stroke-miterlimit="10" stroke-linecap="round"/>
<path d="M248.538 155.739H267.179" stroke="#F77070" stroke-width="5.83314" stroke-miterlimit="10" stroke-linecap="round"/>
<path d="M101 155.739H119.641" stroke="#F77070" stroke-width="5.83314" stroke-miterlimit="10" stroke-linecap="round"/>
<path d="M183.856 79V97.6405" stroke="#F77070" stroke-width="5.83314" stroke-miterlimit="10" stroke-linecap="round"/>
<path d="M183.856 218.616V237.257" stroke="#F77070" stroke-width="5.83314" stroke-miterlimit="10" stroke-linecap="round"/>
<path d="M132.401 188.94L118.886 201.777" stroke="#F77070" stroke-width="5.83314" stroke-miterlimit="10" stroke-linecap="round"/>
</svg>
