<svg width="340" height="344" viewBox="0 0 340 344" fill="none" xmlns="http://www.w3.org/2000/svg">
<path d="M210.592 94.6219C169.583 71.8656 167.805 16.904 217.109 15.6502C246.53 14.9002 238.2 40.1677 260.849 58.817C271.37 67.4763 297.778 60.8809 294.52 82.4298C291.261 103.979 269.496 127.312 210.592 94.6219Z" fill="#46757C"/>
<path d="M94.0009 265.785C90.2893 296.734 200.89 313.905 192.72 278.793C186.874 253.681 98.767 226.088 94.0009 265.785Z" fill="#46757C"/>
<path d="M17.934 156.659C10.5052 192.921 83.121 249.41 159.346 217.932C181.576 208.753 154.766 257.161 197.419 266.911C240.078 276.666 296.288 267.387 309.577 226.387C326.593 173.887 260.787 120.203 191.218 99.0129C118.064 76.7231 27.7482 108.754 17.934 156.659Z" fill="#46757C"/>
<path d="M210.527 186.572H199.686L195.844 182.852C209.292 167.144 217.388 146.75 217.388 124.565C217.388 75.0978 177.456 35 128.194 35C78.9314 35 39 75.0978 39 124.565C39 174.033 78.9314 214.131 128.194 214.131C150.286 214.131 170.595 206.001 186.238 192.497L189.943 196.356V207.241L258.554 276L279 255.469L210.527 186.572ZM128.194 186.572C94.0257 186.572 66.4443 158.876 66.4443 124.565C66.4443 90.255 94.0257 62.5586 128.194 62.5586C162.362 62.5586 189.943 90.255 189.943 124.565C189.943 158.876 162.362 186.572 128.194 186.572Z" fill="#2B3F47"/>
</svg>
