<svg width="324" height="303" viewBox="0 0 324 303" fill="none" xmlns="http://www.w3.org/2000/svg">
<path d="M114.939 88.6186C72.4765 108.532 26.8857 77.7847 54.7442 37.0866C71.3665 12.8 86.9694 34.3493 115.35 26.913C128.531 23.4566 138.651 -1.81178 154.209 13.4498C169.767 28.7114 175.934 60.0184 114.939 88.6186Z" fill="#46757C"/>
<path d="M185.396 283.365C208.308 304.499 287 224.906 253.754 210.965C229.976 200.997 156.011 256.253 185.396 283.365Z" fill="#46757C"/>
<path d="M52.3943 281.112C77.4363 308.371 165.752 282.594 184.878 202.374C190.456 178.978 213.993 229.06 246.876 200.197C279.766 171.332 305.164 120.336 279.714 85.5534C247.125 41.0138 165.071 62.9143 107.152 106.894C46.2418 153.136 19.3116 245.102 52.3943 281.112Z" fill="#46757C"/>
<path d="M150 215C226.215 215 288 207.478 288 198.2C288 188.921 226.215 181.4 150 181.4C73.7846 181.4 11.9999 188.921 11.9999 198.2C11.9999 207.478 73.7846 215 150 215Z" fill="#C6F0F8"/>
<path d="M210.501 145.33H89.4988C83.3649 156.005 78.7928 174.789 85.8168 184.709C90.8987 191.884 121.394 197.658 150 197.658C178.606 197.658 209.101 191.884 214.183 184.709C221.211 174.789 216.635 156.005 210.501 145.33Z" fill="#FF9726"/>
<path d="M89.4987 145.33C87.9936 147.949 86.5856 151.06 85.4203 154.401C92.1449 163.896 112.371 167.929 150.57 167.929C188.77 167.929 207.483 164.187 214.923 155.427C213.693 151.694 212.16 148.211 210.505 145.33H89.4987Z" fill="#E27314"/>
<path d="M150 187.86C121.969 187.86 92.2623 183.137 82.7621 176.927C83.2881 179.832 84.251 182.499 85.8169 184.713C90.8988 191.889 121.394 197.662 150 197.662C178.606 197.662 209.101 191.889 214.183 184.713C215.749 182.503 216.712 179.832 217.238 176.927C207.738 183.137 178.031 187.86 150 187.86Z" fill="#E27314"/>
<path d="M150.57 165.129C203.793 165.129 215.514 156.797 215.514 145.876C215.514 134.954 203.793 126.623 150.57 126.623C97.3481 126.623 85.6266 134.954 85.6266 145.876C85.6266 156.797 97.3481 165.129 150.57 165.129Z" fill="#AA3F14"/>
<path d="M150.57 159.286C106.411 159.286 90.1825 153.807 85.6266 145.908C85.6468 156.817 97.3926 165.133 150.57 165.133C203.748 165.133 215.494 156.817 215.51 145.908C210.954 153.807 194.729 159.286 150.57 159.286Z" fill="#722800"/>
<path d="M215.405 144.191C214.171 134.11 201.017 126.623 150.57 126.623C100.124 126.623 86.8202 134.195 85.7156 144.369C86.1809 144.421 86.6421 144.482 87.1277 144.482C92.7598 144.482 98.9463 140.959 105.869 136.708C108.859 134.87 112.877 133.771 116.62 133.771C119.225 133.771 123.988 134.348 126.613 138.215C132.517 146.906 142.875 150.862 150.004 150.862C157.133 150.862 167.491 146.906 173.394 138.215C176.016 134.348 180.783 133.771 183.388 133.771C187.131 133.771 191.149 134.87 194.139 136.708C201.057 140.959 207.24 144.482 212.88 144.482C213.762 144.482 214.596 144.365 215.405 144.191Z" fill="#722800"/>
<path d="M216.942 115.641H83.0573C76.09 127.585 73.5328 132.829 81.6695 139.751C87.3219 144.555 95.9603 139.508 104.396 134.324C111.323 130.066 123.676 128.898 128.932 136.643C134.192 144.389 143.595 148.062 150 148.062C156.405 148.062 165.812 144.385 171.068 136.643C176.328 128.898 188.681 130.066 195.603 134.324C204.035 139.508 212.678 144.555 218.33 139.751C226.467 132.833 223.91 127.589 216.942 115.641Z" fill="#00C829"/>
<path d="M82.1915 117.136C87.848 127.88 141.523 130.647 150.016 130.647C158.509 130.647 212.148 127.884 217.808 117.14C217.525 116.647 217.242 116.162 216.943 115.645H83.0574C82.758 116.158 82.4748 116.647 82.1915 117.136Z" fill="#00802C"/>
<path d="M218.326 113.003C217.683 125.136 158.905 128.179 150.016 128.179C141.127 128.179 82.3209 125.136 81.6776 113.003C81.2285 104.538 101.139 64 150.016 64C198.893 64 218.775 104.538 218.326 113.003Z" fill="#FF9726"/>
<g style="mix-blend-mode:screen" opacity="0.3">
<path d="M150.016 64C126.051 64 109.066 73.7496 98.0116 84.6791C103.385 93.2852 115.47 94.3236 123.805 89.2771C133.84 83.2003 151.286 80.283 156.672 92.3277C162.057 104.376 183.542 94.1216 187.434 89.0953C190.797 84.7558 201.045 95.5439 208.522 92.0771C198.193 78.582 179.314 64 150.016 64Z" fill="#FF9726"/>
</g>
<path d="M150.016 121.366C141.669 121.366 89.6646 118.7 82.499 108.413C81.8921 110.356 81.621 111.932 81.6776 113.003C82.321 125.136 141.098 128.179 150.016 128.179C158.934 128.179 217.683 125.136 218.326 113.003C218.383 111.936 218.112 110.356 217.505 108.413C210.339 118.7 158.335 121.366 150.016 121.366Z" fill="#E27314"/>
<path d="M150 98.1176C152.812 98.1176 151.922 93.5236 150 93.5236C148.078 93.5236 147.188 98.1176 150 98.1176Z" fill="#FFE78B"/>
<path d="M150 78.4769C152.812 78.4769 151.922 73.8829 150 73.8829C148.078 73.8829 147.188 78.4769 150 78.4769Z" fill="#FFE78B"/>
<path d="M130.231 101.968C132.99 102.497 132.986 97.8186 131.097 97.4549C129.211 97.0913 127.467 101.439 130.231 101.968Z" fill="#FFE78B"/>
<path d="M141.139 110.562C143.898 111.092 143.894 106.413 142.005 106.049C140.119 105.685 138.375 110.033 141.139 110.562Z" fill="#FFE78B"/>
<path d="M134.046 87.1235C136.741 87.9195 137.19 83.2608 135.349 82.7154C133.508 82.1739 131.351 86.3275 134.046 87.1235Z" fill="#FFE78B"/>
<path d="M120.047 80.8568C121.665 82.776 124.671 79.2083 123.567 77.8992C122.462 76.59 118.428 78.9375 120.047 80.8568Z" fill="#FFE78B"/>
<path d="M131.938 71.6728C133.184 73.8506 136.785 70.8809 135.932 69.3899C135.078 67.903 130.692 69.495 131.938 71.6728Z" fill="#FFE78B"/>
<path d="M99.1041 90.6711C100.654 92.5095 103.68 88.966 102.624 87.7135C101.564 86.4569 97.5544 88.8367 99.1041 90.6711Z" fill="#FFE78B"/>
<path d="M113.901 93.1358C116.247 94.6832 118.036 90.3559 116.434 89.3014C114.831 88.2468 111.554 91.5923 113.901 93.1358Z" fill="#FFE78B"/>
<path d="M111.659 105.815C114.184 107.051 115.41 102.534 113.682 101.689C111.959 100.845 109.134 104.578 111.659 105.815Z" fill="#FFE78B"/>
<path d="M169.773 101.968C167.014 102.497 167.018 97.8186 168.907 97.4549C170.793 97.0913 172.537 101.439 169.773 101.968Z" fill="#FFE78B"/>
<path d="M158.861 110.562C156.101 111.092 156.105 106.413 157.995 106.049C159.88 105.685 161.624 110.033 158.861 110.562Z" fill="#FFE78B"/>
<path d="M165.958 87.1235C163.263 87.9195 162.814 83.2608 164.655 82.7154C166.496 82.1739 168.652 86.3275 165.958 87.1235Z" fill="#FFE78B"/>
<path d="M179.957 80.8567C178.339 82.776 175.332 79.2082 176.437 77.8991C177.542 76.586 181.576 78.9375 179.957 80.8567Z" fill="#FFE78B"/>
<path d="M168.066 71.6728C166.819 73.8506 163.218 70.8809 164.072 69.3899C164.926 67.903 169.312 69.495 168.066 71.6728Z" fill="#FFE78B"/>
<path d="M200.896 90.6711C199.346 92.5095 196.319 88.966 197.375 87.7135C198.436 86.4569 202.445 88.8367 200.896 90.6711Z" fill="#FFE78B"/>
<path d="M186.103 93.1358C183.756 94.6832 181.964 90.3559 183.57 89.3014C185.172 88.2468 188.45 91.5923 186.103 93.1358Z" fill="#FFE78B"/>
<path d="M188.345 105.815C185.82 107.051 184.594 102.534 186.322 101.689C188.045 100.845 190.869 104.578 188.345 105.815Z" fill="#FFE78B"/>
</svg>
