<svg width="20" height="20" viewBox="0 0 20 20" fill="none" xmlns="http://www.w3.org/2000/svg">
<path d="M10.2271 6.68485V10.4327L12.9694 13.2436M18.4541 10.4327C18.4541 11.5401 18.2413 12.6367 17.8279 13.6598C17.4144 14.6829 16.8084 15.6125 16.0445 16.3956C15.2805 17.1786 14.3736 17.7998 13.3754 18.2236C12.3773 18.6473 11.3074 18.8655 10.2271 18.8655C9.14666 18.8655 8.07685 18.6473 7.07869 18.2236C6.08054 17.7998 5.1736 17.1786 4.40965 16.3956C3.64569 15.6125 3.03969 14.6829 2.62625 13.6598C2.2128 12.6367 2 11.5401 2 10.4327C2 8.19623 2.86678 6.05133 4.40965 4.46989C5.95252 2.88845 8.0451 2 10.2271 2C12.409 2 14.5016 2.88845 16.0445 4.46989C17.5873 6.05133 18.4541 8.19623 18.4541 10.4327Z" stroke="#2B3F47" stroke-width="2.26244" stroke-linecap="round" stroke-linejoin="round"/>
</svg>
